<svg width="384" height="461" viewBox="0 0 384 461" fill="none" xmlns="http://www.w3.org/2000/svg">
    <path fill-rule="evenodd" clip-rule="evenodd" d="M24.8086 32.0444L0 259.457L46.5161 256.356L53.752 207.772L108.538 204.671L113.706 218.109L160.222 215.008L106.47 24.8086L24.8086 32.0444ZM66.1544 86.8305L57.8848 155.054L94.064 151.953L75.4576 86.8305H66.1544Z" fill="#ef9aaa"/>
    <path d="M218.102 135.414V0H167.453V155.054C175.723 223.691 236.366 225 265.654 217.075L256.351 165.391H236.708C220.169 162.083 217.413 144.028 218.102 135.414Z" fill="#ef9aaa"/>
    <path d="M122.755 317.99C152.525 275.815 188.911 301.795 203.383 320.057L234.388 262.169L230.253 258.034C226.945 254.726 213.028 245.632 206.482 241.498C180.64 229.094 147.557 217.721 96.9051 253.902C46.2536 290.084 52.1118 342.111 56.5911 370.71C61.0705 393.451 84.0873 442.655 140.32 457.54C196.553 472.425 238.865 433.42 252.993 412.057L200.274 377.945C200.619 378.979 199.447 382.494 192.005 388.282C182.702 395.518 163.069 398.619 156.867 397.586C150.665 396.552 95.879 377.945 122.755 317.99Z" fill="#ef9aaa"/>
    <path fill-rule="evenodd" clip-rule="evenodd" d="M285.736 397.126C317.706 397.021 343.527 367.78 343.409 331.814C343.291 295.848 317.278 266.777 285.308 266.882C253.339 266.987 227.518 296.228 227.636 332.194C227.754 368.16 253.767 397.232 285.736 397.126ZM286.651 361.978C300.923 361.931 312.449 348.472 312.394 331.916C312.34 315.361 300.726 301.977 286.454 302.024C272.182 302.071 260.656 315.53 260.71 332.086C260.765 348.642 272.379 362.025 286.651 361.978Z" fill="#ef9aaa"/>
    <path d="M351.458 107.505L383.502 114.741L372.133 161.257L342.156 154.022C339.055 167.804 333.266 197.437 334.92 205.706C336.574 213.976 352.837 219.489 360.761 221.211L351.458 265.66C351.458 267.038 343.395 266.487 311.144 253.256C278.893 240.025 277.721 200.882 281.167 182.965L308.043 46.5176L360.761 57.8882L351.458 107.505Z" fill="#ef9aaa"/>
    <circle cx="302.87" cy="428.983" r="17.5728" fill="#ef9aaa"/>
</svg>